<svg width="40" height="40" viewBox="0 0 40 40" fill="none" xmlns="http://www.w3.org/2000/svg">
<path d="M20 0C23.9556 0 27.8224 1.17298 31.1114 3.37061C34.4004 5.56824 36.9638 8.69181 38.4776 12.3463C39.9913 16.0009 40.3874 20.0222 39.6157 23.9018C38.844 27.7814 36.9392 31.3451 34.1421 34.1421C31.3451 36.9392 27.7814 38.844 23.9018 39.6157C20.0222 40.3874 16.0009 39.9913 12.3463 38.4776C8.69181 36.9638 5.56824 34.4004 3.37061 31.1114C1.17298 27.8224 0 23.9556 0 20C0 14.6957 2.10714 9.60859 5.85786 5.85786C9.60859 2.10714 14.6957 0 20 0V0Z" fill="#F58529"/>
<path d="M19.748 15.262C18.8612 15.262 17.9942 15.525 17.2568 16.0177C16.5194 16.5104 15.9447 17.2107 15.6053 18.03C15.266 18.8494 15.1772 19.751 15.3502 20.6208C15.5232 21.4906 15.9502 22.2896 16.5773 22.9167C17.2044 23.5438 18.0034 23.9708 18.8732 24.1438C19.743 24.3168 20.6446 24.228 21.464 23.8887C22.2833 23.5493 22.9836 22.9746 23.4763 22.2372C23.969 21.4998 24.232 20.6328 24.232 19.746C24.2329 19.1569 24.1176 18.5734 23.8926 18.0289C23.6675 17.4845 23.3373 16.9898 22.9207 16.5733C22.5042 16.1567 22.0095 15.8265 21.4651 15.6014C20.9206 15.3764 20.3371 15.2611 19.748 15.262ZM19.748 22.662C19.1715 22.662 18.6079 22.491 18.1285 22.1707C17.6492 21.8504 17.2755 21.3952 17.0549 20.8625C16.8343 20.3299 16.7765 19.7438 16.889 19.1783C17.0015 18.6128 17.2791 18.0934 17.6868 17.6858C18.0945 17.2781 18.6139 17.0005 19.1793 16.888C19.7448 16.7755 20.3309 16.8333 20.8635 17.0539C21.3962 17.2745 21.8514 17.6481 22.1717 18.1275C22.492 18.6069 22.663 19.1705 22.663 19.747C22.6614 20.5196 22.3538 21.2601 21.8075 21.8065C21.2612 22.3528 20.5206 22.6604 19.748 22.662ZM25.461 15.079C25.461 15.2859 25.3997 15.4881 25.2847 15.6601C25.1698 15.8321 25.0064 15.9662 24.8153 16.0454C24.6242 16.1245 24.4139 16.1452 24.2109 16.1049C24.008 16.0645 23.8217 15.9649 23.6754 15.8186C23.5291 15.6723 23.4295 15.486 23.3891 15.2831C23.3488 15.0801 23.3695 14.8698 23.4486 14.6787C23.5278 14.4876 23.6619 14.3242 23.8339 14.2093C24.0059 14.0943 24.2081 14.033 24.415 14.033C24.5524 14.0325 24.6885 14.0591 24.8156 14.1113C24.9427 14.1636 25.0582 14.2404 25.1555 14.3374C25.2528 14.4344 25.3299 14.5497 25.3825 14.6766C25.4351 14.8035 25.4621 14.9396 25.462 15.077L25.461 15.079ZM28.431 16.141C28.4599 14.7811 27.9523 13.4645 27.018 12.476C26.0279 11.5447 24.713 11.0373 23.354 11.062C21.91 10.98 17.582 10.98 16.138 11.062C14.7796 11.0346 13.4645 11.54 12.474 12.47C11.5413 13.4595 11.034 14.7754 11.061 16.135C10.979 17.579 10.979 21.907 11.061 23.351C11.0322 24.7109 11.5398 26.0274 12.474 27.016C13.4649 27.9465 14.7799 28.4534 16.139 28.429C17.583 28.511 21.911 28.511 23.355 28.429C24.7149 28.4578 26.0315 27.9502 27.02 27.016C27.9511 26.0255 28.4582 24.7102 28.433 23.351C28.515 21.907 28.515 17.583 28.433 16.139L28.431 16.141ZM26.566 24.902C26.4175 25.2776 26.1935 25.6188 25.9077 25.9043C25.622 26.1899 25.2807 26.4137 24.905 26.562C23.754 27.019 21.022 26.913 19.75 26.913C18.478 26.913 15.742 27.013 14.595 26.562C14.2186 26.4136 13.8768 26.1894 13.5907 25.9033C13.3046 25.6172 13.0804 25.2754 12.932 24.899C12.475 23.748 12.581 21.016 12.581 19.744C12.581 18.472 12.481 15.736 12.932 14.589C13.0803 14.213 13.3042 13.8714 13.59 13.5855C13.8757 13.2996 14.2171 13.0755 14.593 12.927C15.744 12.47 18.476 12.576 19.748 12.576C21.02 12.576 23.756 12.476 24.903 12.927C25.2794 13.0754 25.6213 13.2996 25.9073 13.5857C26.1934 13.8717 26.4176 14.2136 26.566 14.59C27.023 15.741 26.917 18.473 26.917 19.745C26.917 21.017 27.023 23.753 26.566 24.9V24.902Z" fill="#FBF9F7"/>
</svg>
