<svg width="40" height="40" viewBox="0 0 40 40" fill="none" xmlns="http://www.w3.org/2000/svg">
<path d="M20 40C31.0457 40 40 31.0457 40 20C40 8.9543 31.0457 0 20 0C8.9543 0 0 8.9543 0 20C0 31.0457 8.9543 40 20 40Z" fill="#3C5A96"/>
<path fill-rule="evenodd" clip-rule="evenodd" d="M22.758 8.5L25.858 8.5C26.4101 8.5 26.8577 8.94742 26.858 9.49952L26.86 13.6295C26.8601 13.8948 26.7548 14.1493 26.5673 14.3369C26.3797 14.5246 26.1253 14.63 25.86 14.63H22.7649C22.7565 14.6303 22.7486 14.6337 22.7426 14.6397C22.7366 14.6457 22.7331 14.6539 22.733 14.6625V16.76H25.863C26.171 16.76 26.4617 16.9019 26.6512 17.1446C26.8407 17.3874 26.9078 17.7039 26.8331 18.0026L25.8001 22.1326C25.6888 22.5778 25.2888 22.89 24.83 22.89H22.73V30.153C22.73 30.7053 22.2823 31.153 21.73 31.153H17.6C17.0477 31.153 16.6 30.7053 16.6 30.153V22.893H14.5C13.9477 22.893 13.5 22.4453 13.5 21.893V17.763C13.5 17.2107 13.9477 16.763 14.5 16.763H16.6V14.663C16.6 13.0295 17.2485 11.4628 18.403 10.3072C19.5575 9.1516 21.1245 8.50158 22.758 8.5ZM22.7585 10.5C21.6553 10.5012 20.5976 10.9403 19.8179 11.7207C19.038 12.5013 18.6 13.5596 18.6 14.663V17.763C18.6 18.3153 18.1523 18.763 17.6 18.763H15.5V20.893H17.6C18.1523 20.893 18.6 21.3407 18.6 21.893V29.153H20.73V21.89C20.73 21.3377 21.1777 20.89 21.73 20.89H24.0493L24.5821 18.76H21.733C21.1807 18.76 20.733 18.3123 20.733 17.76V14.6571C20.7345 14.121 20.9478 13.6072 21.3264 13.2275C21.7049 12.8479 22.2181 12.6331 22.7542 12.63L22.76 12.63L24.8595 12.63L24.8585 10.5H22.7585Z" fill="#FBF9F7"/>
</svg>
